<svg xmlns="http://www.w3.org/2000/svg" version="1.1" width="2047.9999" height="2048" viewBox="0 0 2047.9999 2048" fill="none" id="svg1" xmlns:svg="http://www.w3.org/2000/svg"><metadata><rdf:RDF xmlns:rdf="http://www.w3.org/1999/02/22-rdf-syntax-ns#" xmlns:dc="http://purl.org/dc/elements/1.1/"><rdf:Description><dc:creator>RealFaviconGenerator</dc:creator><dc:source>https://realfavicongenerator.net</dc:source></rdf:Description></rdf:RDF></metadata><defs id="defs1"></defs><rect style="fill:none;stroke:none;stroke-width:2.97602;stroke-linecap:round;stroke-linejoin:round;paint-order:stroke fill markers" id="rect1" width="2048" height="2048" x="-3.3727924e-06" y="0"></rect><path d="m 956.09876,352.00645 -8.2e-4,611.5948 -148.37578,112.94175 -178.72884,-107.40535 -8.2e-4,-108.02 c 0,-4.5387 -3.67887,-8.2191 -8.21827,-8.2191 -4.53939,0 -8.21989,3.6796 -8.21989,8.2191 l 8.2e-4,112.6547 c 0,0.026 -8.2e-4,0.052 -8.2e-4,0.079 v 107.31995 l -119.21202,54.2919 c -4.13091,1.8822 -5.95472,6.7561 -4.07337,10.882 1.88135,4.1343 6.75526,5.9589 10.88617,4.0768 l 124.0251,-56.4824 4.81228,-2.1921 V 988.31695 l 175.04012,105.18705 4.77774,2.8709 4.4342,-3.3756 142.85338,-108.73845 V 1738.3904 L 823.00965,1767.4202 637.685,1718.4098 597.23232,1594.1126 c -0.0148,-0.049 -0.0312,-0.099 -0.0468,-0.1398 l -28.78491,-88.4454 143.86844,-148.4201 c 3.15941,-3.2549 3.07886,-8.4575 -0.18,-11.6219 -3.25969,-3.156 -8.46319,-3.0739 -11.62261,0.1809 l -147.3147,151.979 -3.44707,3.5506 1.53286,4.7095 26.8164,82.3963 H 463.17747 l -92.30767,-103.9137 8.44018,-65.9993 c 0.005,-0.032 0.008,-0.066 0.0131,-0.099 l 20.18524,-157.8639 c 0.57534,-4.4959 -2.60709,-8.6137 -7.1095,-9.189 -4.50241,-0.5753 -8.61935,2.6055 -9.19551,7.1096 L 364.62988,1403.594 221.98117,1317.0636 V 1094.7504 L 328.281,971.87675 l 2.85447,-3.2991 -1.13175,-4.2115 -48.40135,-180.1022 205.13921,-112.9113 215.72951,58.5224 4.43665,1.2041 3.34846,-3.1521 139.16302,-131.0113 c 3.30489,-3.1118 3.46105,-8.3136 0.3493,-11.6184 -3.11091,-3.3049 -8.31279,-3.4611 -11.61767,-0.3502 l -135.81374,127.8602 -214.49828,-58.1887 -3.20544,-0.8695 -2.91038,1.6019 -53.80539,29.6149 46.56685,-181.3934 193.96867,-64.837 v 78.839 c 0,4.5385 3.67968,8.2182 8.21908,8.2191 4.53857,0 8.21908,-3.6797 8.21908,-8.2183 l 8.1e-4,-171.2156 184.62851,-65.7799 z m 183.05784,559.1735 c 41.7776,0 41.7776,0 41.7776,41.7768 0,56.40595 20.3587,54.57795 46.6844,64.99815 3.452,1.3775 6.8876,2.8134 10.2903,4.3085 l 0.041,0.021 c 25.9969,11.2881 40.3885,25.7315 79.0428,-12.9203 7.841,-7.8221 17.3012,-17.05465 28.3724,-17.05555 11.071,0 22.8655,9.23345 30.7064,17.05465 l 43.5037,43.5119 c 7.8245,7.8393 18.3696,15.5093 18.3696,26.5837 0,10.7292 -10.2738,23.9833 -17.6464,31.7503 l -15.9368,15.9039 c -21.1477,21.1971 -8.9505,37.9147 2.2931,63.8705 v 0.01 l 0.01,0.01 c 1.4794,3.4027 2.9012,6.8301 4.2656,10.282 v 0 c 10.4136,26.3421 11.8766,49.3639 72.4348,49.3639 34.3557,0 34.3557,0 34.3557,39.1392 v 61.5116 c 0,41.7776 -0.01,42.5255 -41.7775,41.7776 -51.9693,-0.937 -46.7255,0.9452 -64.9554,46.6926 -1.3809,3.4684 -2.8191,6.8958 -4.3069,10.2738 l -0.024,0.049 c -24.3613,42.205 -24.0243,42.0981 12.9205,79.0429 7.8246,7.841 16.4957,16.7175 16.4957,27.7887 -0.01,10.7341 -8.3998,22.7832 -15.7725,30.5422 l -0.7232,0.7479 -43.5118,43.5119 c -7.841,7.8327 -18.4683,20.6956 -29.5559,20.6956 -11.0792,0 -21.7067,-12.8629 -29.5476,-20.6874 -34.0434,-34.0518 -32.2763,-39.8709 -78.9936,-12.8958 l -2.5397,1.085 c -2.5479,1.0767 -5.1287,2.1205 -7.7259,3.1314 l -0.025,0.01 -0.016,0.01 c -46.7255,26.9833 -46.7255,27.0244 -46.7255,65.0129 0,41.7775 0,41.7775 -41.7776,41.7775 h -55.8158 v -159.5734 c 8.0958,0.7891 16.2573,1.2001 24.4518,1.2001 66.4101,0 130.0916,-26.3833 177.0472,-73.339 46.9556,-46.9556 73.3389,-110.637 73.3389,-177.0472 0,-66.4019 -26.3833,-130.0833 -73.3389,-177.0389 -46.9556,-46.9574 -110.6371,-73.3356 -177.0472,-73.3356 -8.1945,0 -16.356,0.4026 -24.4518,1.1966 V 911.18805 Z m -31.364,182.83435 c 60.2294,0 117.9931,23.9249 160.5762,66.5162 42.5912,42.583 66.517,100.3467 66.517,160.5679 0,60.2295 -23.9258,117.9932 -66.517,160.5763 -42.5831,42.5913 -100.3468,66.517 -160.5762,66.517 -8.2027,0 -16.3642,-0.452 -24.4518,-1.3233 v -48.0569 c 8.252,1.1588 16.6108,1.7506 25.0353,1.7506 47.7529,0 93.5496,-18.9696 127.3136,-52.7336 33.764,-33.764 52.7336,-79.5607 52.7336,-127.3054 0,-47.7528 -18.9696,-93.5495 -52.7336,-127.3135 -33.764,-33.764 -79.5607,-52.7254 -127.3136,-52.7254 -8.4245,0 -16.7833,0.5836 -25.0353,1.7424 v -46.8915 c 8.0876,-0.8761 16.2491,-1.3208 24.4518,-1.3208 z m 554.3277,110.6937 c 0.01,0.01 0.017,0.017 0.017,0.025 l -2.3753,-4.2575 c 0.1398,-0.337 0.3781,-0.7644 0.7397,-1.2822 0.8302,-1.1918 1.9891,-2.4164 3.2795,-3.7068 v 0 l 11.3012,-11.3095 h 0.01 c 1.2903,-1.2904 2.556,-2.4903 3.8053,-3.3698 1.1754,-0.8302 1.7671,-0.9617 1.874,-0.9863 0.066,0.017 0.5343,0.1315 1.5041,0.8631 1.1753,0.8875 2.2848,2.0382 3.7479,3.493 4.1589,4.1506 8.3916,6.5671 13.1916,6.7643 4.356,0.1727 8.2191,-1.6192 10.8081,-2.7452 0.863,-0.3699 1.726,-0.7314 2.6055,-1.0931 0.6328,-0.2466 1.2493,-0.4685 1.9478,-0.7233 0.674,-0.2382 1.463,-0.526 2.2356,-0.8465 1.5535,-0.6494 3.452,-1.6028 5.1617,-3.2549 3.641,-3.5341 4.7751,-8.6052 4.7751,-14.9751 0,-3.6246 0.01,-5.8191 0.181,-7.3561 0.01,-0.058 0.017,-0.1149 0.025,-0.1725 0.058,-0.01 0.115,-0.017 0.1807,-0.025 1.5288,-0.1643 3.7315,-0.1807 7.3562,-0.1807 h 15.9942 c 3.6164,0 5.8191,0.01 7.3479,0.1807 0.058,0.01 0.1151,0.017 0.1726,0.025 0.01,0.058 0.017,0.115 0.024,0.1725 0.1727,1.537 0.1809,3.7315 0.1809,7.3561 0,3.1233 0.074,5.8027 0.4274,7.9725 0.3699,2.2685 1.1425,4.6849 3.0656,6.6986 1.7754,1.8575 3.9699,2.7205 5.4247,3.263 1.8575,0.6822 2.9753,0.9862 5.1944,1.874 0.863,0.3451 1.726,0.7068 2.5726,1.0848 h 0.017 l 0.01,0.01 c 1.1012,0.4766 2.8767,1.315 4.3232,1.8575 1.6274,0.6165 3.6575,1.1999 5.9999,1.1917 4.9725,-0.032 9.2957,-2.6794 13.6929,-7.0683 1.4796,-1.4712 2.6713,-2.7206 3.9617,-3.7233 0.8794,-0.6822 1.3808,-0.8959 1.5616,-0.9617 0.1726,0.066 0.6494,0.2795 1.4713,0.9289 1.2821,1.0109 2.4081,2.2273 3.9368,3.7478 v 0.01 l 11.3096,11.3094 v 0 c 1.389,1.389 2.7123,2.7123 3.7396,4.0767 0.7233,0.9616 0.9781,1.5287 1.0603,1.7506 -0.09,0.1808 -0.3041,0.5589 -0.8219,1.159 -0.4685,0.5424 -1.0438,1.1259 -1.7507,1.8 -0.5588,0.5424 -1.3808,1.315 -2.063,1.9807 -1.8821,1.6685 -3.7807,3.2713 -5.0464,4.5205 -1.3069,1.3068 -3.1315,3.337 -3.6412,6.3122 -0.5095,2.9178 0.4767,5.4658 1.274,7.2082 0.7808,1.726 2.0137,3.9205 3.3288,6.3698 0.337,0.7808 0.6656,1.5616 0.978,2.3506 1.052,2.6547 1.578,4.4054 2.2192,6.2219 0.4931,1.3808 1.3562,3.8794 3.3698,5.7123 2.3589,2.1369 5.1616,2.4821 7.1835,2.5479 1.9726,0.058 4.5615,-0.148 7.4957,-0.3617 3.526,-0.2547 5.6466,-0.337 7.0356,-0.2137 0,0 0,0 0,0 0.017,0.1315 0.041,0.2795 0.058,0.4439 0.1726,1.6273 0.189,3.904 0.189,7.5122 v 15.9943 c 0,3.6246 -0.01,5.8192 -0.1808,7.3479 -0.01,0.058 -0.017,0.1232 -0.024,0.1726 -0.058,0.01 -0.1151,0.017 -0.1728,0.024 -1.5368,0.1726 -3.7313,0.1808 -7.3477,0.1808 -2.9835,0 -5.5561,-0.01 -7.5286,0.1891 -2.0138,0.2055 -4.5782,0.7068 -6.7644,2.6383 -1.9972,1.7671 -2.8849,4.1014 -3.4109,5.515 -0.6822,1.8411 -1.0931,3.2384 -2.1041,5.7781 -0.3453,0.8629 -0.7069,1.7177 -1.0767,2.5643 -1.2001,2.7369 -2.1863,4.4794 -2.9671,5.9342 -0.3616,0.6739 -0.8302,1.5534 -1.1753,2.441 -0.3617,0.9371 -0.7808,2.3261 -0.6576,3.9863 0.2548,3.3534 2.5397,5.5725 3.4932,6.5342 0.641,0.641 1.4465,1.4054 2.2766,2.1944 0.8631,0.822 1.8658,1.7836 3.0329,2.9589 1.4548,1.4547 2.6465,2.6055 3.5753,3.8301 0.715,0.9371 0.8711,1.4301 0.9123,1.5452 -0.041,0.1316 -0.1973,0.6657 -0.9616,1.6932 -0.9206,1.2492 -2.1452,2.4738 -3.526,3.8547 l -11.3095,11.3176 c -1.537,1.5289 -2.5479,2.6301 -3.7068,3.526 -0.8549,0.6575 -1.2658,0.7809 -1.3562,0.8055 -0.058,-0.017 -0.263,-0.058 -0.6164,-0.2137 0.1069,0.049 0.1973,0.09 0.2795,0.1151 l -2.1452,-1.2329 c 0.09,0.058 0.1726,0.1234 0.263,0.1808 -1.1671,-0.8137 -2.3424,-1.8903 -3.452,-2.9835 -4.0027,-4.8575 -8.4164,-7.5862 -13.66,-7.4712 -2.3836,0.049 -4.4795,0.6905 -6.1398,1.3398 -1.4794,0.5671 -3.3123,1.4466 -4.3972,1.9232 -0.8466,0.3617 -1.7013,0.7151 -2.5726,1.0521 l -0.024,0.01 c -0.6,0.2383 -1.2164,0.4602 -1.9315,0.7068 -0.6822,0.2303 -1.4959,0.5097 -2.2849,0.822 -1.5699,0.6081 -3.5917,1.5287 -5.3917,3.1561 -4.1013,3.6903 -5.1369,9.0739 -4.4959,15.7313 0.337,3.452 0.4439,5.5315 0.3452,6.8712 -0.1562,0.024 -0.337,0.049 -0.5424,0.074 -1.6521,0.1725 -3.9534,0.189 -7.5534,0.189 h -16.0108 c -3.6081,0 -5.8765,-0.01 -7.4793,-0.189 -0.1561,-0.017 -0.2877,-0.033 -0.4109,-0.049 0,-0.01 0,-0.017 0,-0.024 -0.1233,-1.4137 -0.058,-3.5424 0.1562,-7.0931 0.4026,-6.5506 -0.674,-11.8191 -4.6027,-15.4601 -1.7754,-1.6356 -3.7562,-2.5643 -5.3178,-3.1808 -0.7891,-0.3123 -1.5863,-0.5999 -2.2603,-0.8302 -0.7068,-0.2548 -1.3232,-0.4684 -1.9315,-0.7068 h 0.01 c -0.8713,-0.3452 -1.7261,-0.7068 -2.5726,-1.0767 h -0.017 l -0.01,-0.01 -0.8795,-0.3945 c -1.0027,-0.4603 -2.3506,-1.0849 -3.3205,-1.463 -1.5945,-0.6328 -3.6164,-1.2575 -5.9752,-1.2657 -5.0301,-0.025 -9.3861,2.6876 -13.841,7.1342 -1.1095,1.1095 -2.2849,2.0958 -3.4191,2.7862 -1.1672,0.7068 -1.8822,0.8466 -2.1781,0.8466 -0.2548,0 -0.8794,-0.1151 -1.9643,-0.7972 -0.263,-0.1645 -0.5343,-0.3535 -0.8137,-0.5589 l -15.2547,-14.9835 c 0.2056,0.2138 0.4193,0.4274 0.6412,0.6576 -1.0685,-1.0767 -1.9398,-1.989 -2.622,-2.9179 -0.8383,-1.1507 -0.83,-1.5944 -0.83,-1.5368 0,-0.025 0.017,-0.1891 0.148,-0.5097 0.1479,-0.3863 0.4109,-0.8794 0.8136,-1.4794 0.8383,-1.2411 2.0055,-2.5069 3.2383,-3.7397 4.5945,-4.6109 7.4712,-9.0492 7.315,-14.1944 -0.074,-2.4081 -0.8137,-4.4218 -1.4712,-5.9177 -0.3288,-0.7397 -0.6987,-1.4876 -0.9946,-2.0959 -0.2384,-0.4849 -0.452,-0.9287 -0.6493,-1.3725 l -0.1971,-0.4439 c -0.3618,-0.8548 -0.7233,-1.7177 -1.0768,-2.5889 -0.3699,-0.937 -1.1179,-3.074 -1.6685,-4.3643 -0.6821,-1.5946 -1.6767,-3.5425 -3.3205,-5.2768 -3.6657,-3.8711 -8.8684,-4.9972 -15.3285,-4.4629 -3.5014,0.2959 -5.5973,0.3864 -6.9616,0.2794 -0.025,-0.1479 -0.041,-0.3041 -0.066,-0.4931 -0.1725,-1.6356 -0.189,-3.9287 -0.189,-7.5287 v -16.0025 c 0,-3.6247 0.01,-5.8191 0.1808,-7.356 0.01,-0.058 0.017,-0.1151 0.024,-0.1728 0.058,-0.01 0.1151,-0.017 0.1725,-0.024 1.537,-0.1644 3.7315,-0.1808 7.3479,-0.1808 6.4191,0 11.5315,-1.1178 15.0574,-4.7999 1.6602,-1.7178 2.5889,-3.6411 3.2218,-5.1863 0.3124,-0.7644 0.5919,-1.5452 0.822,-2.2109 0.2548,-0.6986 0.4685,-1.3151 0.715,-1.9315 0.337,-0.863 0.6904,-1.726 1.0686,-2.5726 0.3616,-0.8465 1.4054,-3.0163 1.9067,-4.2574 0.6576,-1.611 1.3398,-3.6822 1.4137,-6.0739 0.1481,-5.2603 -2.663,-9.6739 -7.4711,-13.841 -0.5424,-0.5425 -1.0521,-1.0602 -1.5123,-1.5616 z m 141.8696,140.8998 c -0.041,-0.017 -0.074,-0.033 -0.1151,-0.058 0.041,0.024 0.074,0.041 0.1151,0.058 z m -0.3617,-0.1809 c -0.01,-0.01 -0.025,-0.017 -0.033,-0.024 0.01,0.01 0.024,0.017 0.033,0.024 z m -0.3699,-0.2219 c -0.032,-0.017 -0.066,-0.041 -0.099,-0.058 0.032,0.017 0.066,0.041 0.099,0.058 z m -125.982,-1.6438 c -0.041,-0.032 -0.074,-0.058 -0.1068,-0.09 0.032,0.033 0.066,0.058 0.1068,0.09 z m -0.4192,-0.3452 c -0.024,-0.017 -0.049,-0.041 -0.074,-0.058 0.025,0.017 0.049,0.041 0.074,0.058 z m -0.8465,-0.7562 c -0.041,-0.032 -0.09,-0.074 -0.1315,-0.115 0.041,0.041 0.09,0.082 0.1315,0.115 z m -0.9205,-0.8875 c 0.1889,0.1972 0.3779,0.3861 0.5752,0.567 -0.1973,-0.1809 -0.3863,-0.3698 -0.5752,-0.567 z m 162.5979,-20.4739 0.1973,0.2795 -0.2302,0.2466 -0.049,0.049 c -0.1068,-0.4109 -0.2302,-0.8137 -0.3698,-1.1999 z m -4.1423,-6.6574 c 0.041,0.058 0.09,0.1151 0.1398,0.1643 -0.049,-0.049 -0.099,-0.1067 -0.1398,-0.1643 z m -91.0674,-101.5138 c -13.2491,0 -25.9559,5.2602 -35.3175,14.6298 -9.3698,9.3698 -14.6298,22.0684 -14.6298,35.3176 0,13.2491 5.26,25.9557 14.6298,35.3255 9.3616,9.3615 22.0684,14.63 35.3175,14.63 13.2492,0 25.9558,-5.2685 35.3174,-14.63 9.3697,-9.3698 14.6382,-22.0764 14.6382,-35.3255 0,-13.2492 -5.2685,-25.9478 -14.6382,-35.3176 -9.3616,-9.3696 -22.0682,-14.6298 -35.3174,-14.6298 z m 83.6784,92.1029 4.6931,6.5425 c -0.3452,-0.3535 -0.6657,-0.6658 -0.9452,-0.9453 -1.2739,-1.2821 -2.3671,-2.3259 -3.2547,-3.1725 -0.4686,-0.4439 -0.8548,-0.8137 -1.1836,-1.126 0.2055,-0.3863 0.4356,-0.8219 0.6904,-1.2987 z m 2.3343,-79.4456 c -0.01,-0.017 -0.017,-0.033 -0.025,-0.058 l -0.098,-0.2384 -0.1234,-0.222 -1.9232,-3.5587 c -0.4767,-0.8796 -0.8384,-1.5781 -1.1179,-2.1864 0.3207,-0.3122 0.6822,-0.6411 1.1097,-1.0191 z m -0.4768,-8.7697 c -0.6082,0.5342 -1.126,0.9863 -1.5699,1.3726 0.4439,-0.3863 0.9617,-0.8384 1.5699,-1.3726 z m -166.3624,-12.6163 c -0.1233,-0.1397 -0.2384,-0.2713 -0.3533,-0.4109 0.1149,0.1396 0.23,0.2712 0.3533,0.4109 z m -0.452,-0.5261 c -0.09,-0.1067 -0.1726,-0.2054 -0.2548,-0.3122 0.082,0.1068 0.1644,0.2055 0.2548,0.3122 z m 105.0399,-53.7363 v 0.1644 c -0.074,-0.049 -0.1399,-0.1068 -0.2139,-0.1644 z M 1718.084,716.78155 c 5.8849,0 9.6082,0.012 12.2465,0.3049 0.8054,0.089 1.3561,0.1931 1.7095,0.2769 0.082,0.351 0.189,0.8975 0.2713,1.708 0.2959,2.6383 0.3123,6.3591 0.3123,12.2488 0,5.1262 0.1232,9.3706 0.674,12.7676 0.5753,3.526 1.7506,7.0634 4.5287,9.973 2.589,2.7049 5.8108,4.0076 8.178,4.8805 2.893,1.0701 4.9149,1.6421 8.556,3.0944 1.4383,0.573 2.8602,1.1705 4.2821,1.7918 l 0.032,0.015 c 1.9069,0.831 4.6767,2.1452 6.9864,3.0156 2.5643,0.9641 5.6383,1.8386 9.1559,1.8197 7.4302,-0.039 14.0629,-3.9731 21.123,-11.0226 2.3672,-2.3621 4.4301,-4.5247 6.6658,-6.258 2.3425,-1.8147 3.4931,-2.0219 3.7232,-2.0219 0.189,0 1.2821,0.1767 3.5589,1.9751 2.2109,1.7473 4.1753,3.8653 6.6081,6.2974 v 0 l 18.5505,18.5439 c 2.2356,2.2438 4.5123,4.5039 6.2876,6.862 1.9233,2.5587 2.1945,3.8646 2.1945,4.1014 -0.01,0.021 -0.066,0.8999 -1.8822,3.0204 -1.9068,2.2315 -3.715,3.6913 -6.3945,6.3633 -3.1643,2.8019 -6.1971,5.3473 -8.219,7.3585 -2.0877,2.0745 -4.7096,5.0581 -5.4493,9.3221 -0.7232,4.1941 0.6822,7.9256 1.9479,10.7111 1.2576,2.7674 3.2466,6.3082 5.4493,10.402 0.5753,1.3151 1.1178,2.6392 1.6439,3.9716 1.7423,4.393 2.6383,7.3618 3.6656,10.2508 0.8219,2.3194 2.1124,5.9621 5.0137,8.5955 3.3534,3.0517 7.3888,3.5933 10.5614,3.6887 3.0986,0.093 7.2164,-0.2375 12.0821,-0.5893 5.7617,-0.4167 9.3781,-0.5597 11.8273,-0.346 0.6658,0.058 1.126,0.1348 1.4219,0.2005 0.1068,0.3946 0.2548,1.0824 0.3781,2.2019 0.304,2.7846 0.3205,6.6345 0.3205,12.5045 v 26.2016 c 0,5.8899 -0.017,9.6114 -0.3041,12.2489 -0.09,0.8096 -0.1973,1.3562 -0.2794,1.7072 -0.3534,0.084 -0.8959,0.1873 -1.7096,0.2778 -2.6384,0.2926 -6.3616,0.3057 -12.2464,0.3057 -4.9315,0 -9.0246,-0.011 -12.1396,0.3033 -3.1643,0.3188 -6.8958,1.0857 -10.0191,3.8564 -2.8931,2.5536 -4.2164,5.9547 -5.0711,8.2766 -1.0767,2.8981 -1.8082,5.3415 -3.4685,9.5086 -0.5754,1.4409 -1.1753,2.8644 -1.7917,4.269 -2.0054,4.5665 -3.6493,7.4892 -4.9233,9.8596 -0.6,1.1105 -1.315,2.4551 -1.8328,3.7857 -0.5425,1.3973 -1.1261,3.3723 -0.9535,5.7156 0.3534,4.7037 3.5589,7.8787 5.1781,9.507 1.0274,1.0356 2.326,2.2545 3.6986,3.5613 1.4137,1.3512 3.0657,2.9392 5.0053,4.8789 2.3343,2.3383 4.3972,4.3307 6.0165,6.4676 1.6684,2.197 1.8903,3.3336 1.8903,3.6633 0,0.3755 -0.263,1.6084 -1.9561,3.9007 -1.611,2.1814 -3.7068,4.2837 -5.9424,6.5252 l -18.5422,18.54055 c -2.4493,2.442 -4.2329,4.3751 -6.2548,5.9383 -1.9807,1.5272 -2.9835,1.7104 -3.3369,1.7112 -0.5589,0 -2.0137,-0.3551 -4.4383,-2.003 -2.1617,-1.4729 -4.315,-3.4397 -6.2795,-5.3819 -6.3697,-7.748 -13.1176,-11.8008 -20.9503,-11.6332 -3.5917,0.078 -6.789,1.0512 -9.4191,2.0679 -2.3836,0.9247 -5.2602,2.3005 -7.1507,3.1266 -1.3971,0.6057 -2.8191,1.1893 -4.2573,1.7506 l -0.017,0.01 -0.017,0.01 c -1.0273,0.4061 -2.0712,0.7743 -3.2464,1.1811 -1.1178,0.3888 -2.4165,0.8351 -3.674,1.3241 -2.4904,0.9716 -5.5561,2.3737 -8.2601,4.8115 -6.0657,5.4591 -7.7754,13.5409 -6.748,24.2003 0.559,5.7172 0.7481,9.2941 0.559,11.6726 -0.049,0.6207 -0.1151,1.0513 -0.1808,1.3357 -0.4028,0.1159 -1.1343,0.2828 -2.3672,0.4158 -2.8356,0.305 -6.7231,0.323 -12.5834,0.323 h -26.2189 c -5.8765,0 -9.7067,-0.014 -12.4683,-0.3139 -1.0684,-0.1158 -1.7342,-0.2557 -2.1287,-0.3591 -0.066,-0.3091 -0.1479,-0.7817 -0.2054,-1.4705 -0.2302,-2.4731 -0.107,-6.1108 0.2465,-11.8946 0.6411,-10.5254 -1.1261,-18.451 -6.9451,-23.8353 -2.6548,-2.4543 -5.6466,-3.8697 -8.1287,-4.8551 -1.241,-0.4947 -2.515,-0.9411 -3.6328,-1.3323 -0.8713,-0.3073 -1.685,-0.5925 -2.4741,-0.8884 l -0.789,-0.3025 c -1.4218,-0.5696 -2.8355,-1.1614 -4.2327,-1.7754 l -0.033,-0.016 c -1.7095,-0.7413 -4.7177,-2.1862 -6.83,-3.0188 -2.4987,-0.9879 -5.5643,-1.9282 -9.1067,-1.9455 -7.4795,-0.036 -14.1533,3.9872 -21.3369,11.1508 -1.8739,1.8675 -3.9204,3.6049 -5.9423,4.8338 -2.0795,1.2599 -3.5917,1.6544 -4.5451,1.6552 -0.9041,0 -2.2849,-0.3615 -4.2246,-1.583 -1.6768,-1.0594 -3.3863,-2.515 -5.1123,-4.1802 l -0.7398,-0.7258 -18.5339,-18.53735 c -2.285,-2.284 -4.2246,-4.2031 -5.6958,-6.2128 -1.4795,-2.021 -1.7261,-3.1479 -1.7261,-3.6303 0,-0.6041 0.3452,-2.0121 1.8986,-4.3117 1.4795,-2.1797 3.4849,-4.3585 5.5233,-6.4019 7.4382,-7.4514 11.6793,-14.2412 11.4409,-21.862 -0.1069,-3.5942 -1.2164,-6.6327 -2.2603,-8.9998 -0.5095,-1.1737 -1.0931,-2.354 -1.5862,-3.3657 -0.5097,-1.0529 -0.9781,-2.0153 -1.4137,-3.0165 -0.6001,-1.421 -1.2,-2.8602 -1.7918,-4.3174 -0.6575,-1.6833 -1.8164,-4.989 -2.7206,-7.1128 -1.0848,-2.5348 -2.5972,-5.4896 -5.071,-8.0983 -5.4575,-5.7517 -13.2821,-7.5845 -23.597,-6.7208 -5.7452,0.4809 -9.3452,0.6461 -11.7534,0.4456 -0.6492,-0.054 -1.0931,-0.1283 -1.389,-0.1916 -0.1068,-0.3993 -0.263,-1.1095 -0.3945,-2.2808 -0.3041,-2.8059 -0.3205,-6.6754 -0.3205,-12.5415 v -26.2196 c 0,-5.8899 0.017,-9.6114 0.3123,-12.2497 0.09,-0.8096 0.1891,-1.357 0.2712,-1.708 0.3534,-0.084 0.9042,-0.1866 1.7096,-0.2769 2.6384,-0.2926 6.3615,-0.3049 12.2464,-0.3049 10.3725,0 18.0737,-1.8255 23.3176,-7.2854 2.4739,-2.5767 3.8958,-5.469 4.8821,-7.9052 0.4932,-1.2115 0.937,-2.455 1.3232,-3.549 0.411,-1.1432 0.7726,-2.1814 1.1918,-3.2399 0.5672,-1.4293 1.1589,-2.8496 1.7672,-4.26 0.6903,-1.5674 2.2849,-4.8755 3.115,-6.9352 1.0355,-2.5438 2.0712,-5.6984 2.1699,-9.2966 0.2218,-7.8303 -3.9288,-14.5921 -11.6465,-21.2554 -2.1123,-2.1148 -4.0109,-4.0784 -5.4329,-6.0772 -1.5122,-2.1213 -1.7917,-3.3492 -1.7917,-3.8761 0,-0.5622 0.3123,-1.8698 1.8411,-4.0709 1.4712,-2.1107 3.4602,-4.2066 5.5808,-6.3286 l 18.5339,-18.5366 c 2.1206,-2.1164 4.2987,-4.1884 6.4931,-5.732 2.3261,-1.6339 3.6657,-1.9488 4.1672,-1.9488 0.3862,0 1.4876,0.2203 3.567,1.7901 2.0713,1.5543 3.9944,3.5508 6.3368,5.8907 6.6329,6.6196 13.1424,10.2426 20.367,10.5351 6.6246,0.268 12.5505,-2.4631 16.8901,-4.3429 1.4137,-0.6115 2.8438,-1.2131 4.2987,-1.8024 1.0684,-0.4216 2.1123,-0.794 3.2629,-1.2106 1.1096,-0.4003 2.3589,-0.8532 3.5754,-1.3611 2.4492,-1.0217 5.3177,-2.4707 7.8738,-4.9504 5.4082,-5.252 7.2575,-12.9032 7.2575,-23.1852 0,-5.8898 0.01,-9.6105 0.304,-12.2481 0.09,-0.8104 0.1891,-1.3569 0.2713,-1.7071 0.3535,-0.085 0.9041,-0.1874 1.7178,-0.2778 2.6384,-0.2934 6.3698,-0.3058 12.2629,-0.3058 z m -585.6835,-343.6243 c 43.52,0 37.216,16.6577 37.216,37.2178 -2.4246,49.5412 18.945,50.719 43.3392,60.374 3.1479,1.255 6.2712,2.5643 9.3698,3.9263 l 0.025,0.011 0.025,0.01 c 30.9941,13.1703 42.6406,22.4866 73.3881,-12.0254 6.9863,-6.9681 16.4546,-17.015 26.3176,-17.015 9.8627,0 19.323,10.0436 26.3009,17.006 l 39.8051,39.805 c 6.9698,6.9847 16.4875,16.2927 16.4875,26.1589 0,9.8653 -9.5177,19.485 -16.4875,26.4695 -31.7585,31.8342 -31.7585,35.2525 -12.0245,73.3841 v 0.01 l 0.01,0.011 c 1.348,3.1011 2.6466,6.2277 3.8877,9.374 14.8108,37.4863 16.4053,43.3679 60.3856,43.3686 37.216,0 37.216,0 37.216,37.2178 v 56.2563 c 0,37.2177 0,37.2177 -37.216,37.2177 -42.9365,0.8431 -47.9172,9.5777 -60.3362,43.3383 -1.2576,3.1586 -2.5645,6.2794 -3.9206,9.3608 l -0.024,0.053 c -18.567,36.5963 -16.2409,45.1261 3.4848,64.8593 6.9698,6.9846 25.0271,24.1748 25.0271,34.0409 0,9.3887 -8.6218,19.1439 -15.4601,26.0842 -11.9506,-11.4682 -28.1092,-25.5022 -43.8488,-25.5022 -17.2436,8e-4 -44.8186,28.7076 -44.8186,28.7076 l -0.016,0.01 c -25.0682,25.07165 -34.5119,16.19575 -53.3007,8.03585 -3.6329,-1.59455 -7.2903,-3.12745 -10.9725,-4.59695 l -0.016,-0.01 -0.025,-0.01 -0.8877,-0.3609 c -18.5504,-7.6972 -31.1092,-3.0641 -31.1092,-42.9907 0,0.3394 0.01,0.6789 0.016,1.0176 22.8162,-11.0843 43.8488,-25.9641 62.1198,-44.2392 43.1338,-43.1339 67.3719,-101.6364 67.3719,-162.6368 0,-60.9996 -24.2381,-119.5021 -67.3719,-162.6358 -43.1337,-43.1339 -101.6371,-67.367 -162.6309,-67.367 -6.8301,0 -13.6355,0.3091 -20.3833,0.9099 v -144.8481 z m 572.5741,434.7911 c -21.2052,0 -41.5475,8.4236 -56.539,23.4186 -14.9916,14.994 -23.4162,35.3313 -23.4162,56.5366 0,21.2052 8.4246,41.5425 23.4162,56.5366 14.9915,14.9941 35.3338,23.4187 56.539,23.4187 21.2052,0 41.5392,-8.4246 56.5309,-23.4187 14.9997,-14.9941 23.4243,-35.3314 23.4243,-56.5366 0,-21.2053 -8.4246,-41.5426 -23.4243,-56.5366 -14.9917,-14.995 -35.3257,-23.4186 -56.5309,-23.4186 z m -601.2505,-267.5616 c 54.8213,0 107.3988,21.7782 146.1682,60.5443 38.7612,38.7653 60.5417,91.3444 60.5417,146.1673 0,54.8238 -21.7805,107.402 -60.5417,146.1673 -13.7341,13.7332 -29.2106,25.3288 -45.8954,34.5842 -0.7315,-23.6544 -3.9369,-33.3061 -17.9093,-37.2447 12.8135,-7.278 24.7065,-16.2935 35.3091,-26.896 31.0681,-31.0683 48.5255,-73.2067 48.5255,-117.1442 0,-43.9376 -17.4574,-86.0752 -48.5255,-117.1433 -31.0681,-31.0689 -73.2073,-48.5238 -117.1383,-48.5238 -7.0356,0 -14.0218,0.4472 -20.9176,1.3249 v -40.8275 c 6.7397,-0.6681 13.5451,-1.0085 20.3833,-1.0085 z m -644.05042,-45.2361 -51.51884,200.6935 -136.97961,75.3945 136.97879,-75.3954 z M 1662.1203,1204.708 c -0.148,-0.156 -0.2876,-0.3123 -0.4191,-0.4602 0.1315,0.1479 0.2711,0.3042 0.4191,0.4602 z m 175.8555,119.3329 c 0.01,0.099 0.017,0.1972 0.017,0.3041 0,-0.1069 -0.01,-0.2055 -0.017,-0.3041 z" fill="#007aff" id="path1" style="stroke-width:0.821908"></path></svg>