<svg width="2013" height="1809" viewBox="0 0 2013 1809" fill="none" xmlns="http://www.w3.org/2000/svg">
<path d="M893.187 86.9043L893.186 831.02L712.66 968.434L495.204 837.756L495.203 706.33C495.203 700.808 490.727 696.33 485.204 696.33C479.681 696.33 475.203 700.807 475.203 706.33L475.204 843.395C475.204 843.426 475.203 843.458 475.203 843.49V974.064L330.16 1040.12C325.134 1042.41 322.915 1048.34 325.204 1053.36C327.493 1058.39 333.423 1060.61 338.449 1058.32L489.348 989.599L495.203 986.932V861.09L708.171 989.069L713.984 992.562L719.379 988.455L893.186 856.155V1773.69L731.26 1809.01L505.779 1749.38L456.561 1598.15C456.543 1598.09 456.523 1598.03 456.504 1597.98L421.482 1490.37L596.524 1309.79C600.368 1305.83 600.27 1299.5 596.305 1295.65C592.339 1291.81 586.008 1291.91 582.164 1295.87L402.929 1480.78L398.735 1485.1L400.6 1490.83L433.227 1591.08H293.459L181.15 1464.65L191.419 1384.35C191.425 1384.31 191.429 1384.27 191.435 1384.23L215.994 1192.16C216.694 1186.69 212.822 1181.68 207.344 1180.98C201.866 1180.28 196.857 1184.15 196.156 1189.63L173.558 1366.35L0 1261.07V990.586L129.333 841.088L132.806 837.074L131.429 831.95L72.54 612.823L322.129 475.446L584.603 546.649L590.001 548.114L594.075 544.279L763.392 384.88C767.413 381.094 767.603 374.765 763.817 370.744C760.032 366.723 753.703 366.533 749.682 370.318L584.44 525.883L323.464 455.086L319.564 454.028L316.023 455.977L250.559 492.009L307.216 271.311L543.214 192.425V288.347C543.214 293.869 547.691 298.346 553.214 298.347C558.736 298.347 563.214 293.87 563.214 288.348L563.215 80.0332L787.849 0L893.187 86.9043ZM1115.91 767.24C1166.74 767.24 1166.74 767.24 1166.74 818.069C1166.74 886.697 1191.51 884.473 1223.54 897.151C1227.74 898.827 1231.92 900.574 1236.06 902.393L1236.11 902.417C1267.74 916.15 1285.25 933.724 1332.28 886.697C1341.82 877.18 1353.33 865.947 1366.8 865.946C1380.27 865.946 1394.62 877.179 1404.16 886.696L1457.09 939.636C1466.61 949.174 1479.44 958.506 1479.44 971.98C1479.44 985.034 1466.94 1001.16 1457.97 1010.61L1438.58 1029.96C1412.85 1055.75 1427.69 1076.09 1441.37 1107.67L1441.37 1107.68L1441.38 1107.69C1443.18 1111.83 1444.91 1116 1446.57 1120.2L1446.57 1120.2C1459.24 1152.25 1461.02 1180.26 1534.7 1180.26C1576.5 1180.26 1576.5 1180.26 1576.5 1227.88V1302.72C1576.5 1353.55 1576.49 1354.46 1525.67 1353.55C1462.44 1352.41 1468.82 1354.7 1446.64 1410.36C1444.96 1414.58 1443.21 1418.75 1441.4 1422.86L1441.37 1422.92C1411.73 1474.27 1412.14 1474.14 1457.09 1519.09C1466.61 1528.63 1477.16 1539.43 1477.16 1552.9C1477.15 1565.96 1466.94 1580.62 1457.97 1590.06L1457.09 1590.97L1404.15 1643.91C1394.61 1653.44 1381.68 1669.09 1368.19 1669.09C1354.71 1669.09 1341.78 1653.44 1332.24 1643.92C1290.82 1602.5 1292.97 1595.41 1236.13 1628.23L1233.04 1629.55C1229.94 1630.86 1226.8 1632.13 1223.64 1633.36L1223.61 1633.37L1223.59 1633.38C1166.74 1666.21 1166.74 1666.26 1166.74 1712.48C1166.74 1763.31 1166.74 1763.31 1115.91 1763.31H1048V1569.16C1057.85 1570.12 1067.78 1570.62 1077.75 1570.62C1158.55 1570.62 1236.03 1538.52 1293.16 1481.39C1350.29 1424.26 1382.39 1346.78 1382.39 1265.98C1382.39 1185.19 1350.29 1107.71 1293.16 1050.58C1236.03 993.448 1158.55 961.354 1077.75 961.354C1067.78 961.354 1057.85 961.844 1048 962.81V767.24H1115.91ZM1077.75 989.691C1151.03 989.691 1221.31 1018.8 1273.12 1070.62C1324.94 1122.43 1354.05 1192.71 1354.05 1265.98C1354.05 1339.26 1324.94 1409.54 1273.12 1461.35C1221.31 1513.17 1151.03 1542.28 1077.75 1542.28C1067.77 1542.28 1057.84 1541.73 1048 1540.67V1482.2C1058.04 1483.61 1068.21 1484.33 1078.46 1484.33C1136.56 1484.33 1192.28 1461.25 1233.36 1420.17C1274.44 1379.09 1297.52 1323.37 1297.52 1265.28C1297.52 1207.18 1274.44 1151.46 1233.36 1110.38C1192.28 1069.3 1136.56 1046.23 1078.46 1046.23C1068.21 1046.23 1058.04 1046.94 1048 1048.35V991.298C1057.84 990.232 1067.77 989.691 1077.75 989.691ZM1752.19 1124.37C1752.2 1124.38 1752.21 1124.39 1752.21 1124.4L1749.32 1119.22C1749.49 1118.81 1749.78 1118.29 1750.22 1117.66C1751.23 1116.21 1752.64 1114.72 1754.21 1113.15L1754.21 1113.15L1767.96 1099.39L1767.97 1099.39C1769.54 1097.82 1771.08 1096.36 1772.6 1095.29C1774.03 1094.28 1774.75 1094.12 1774.88 1094.09C1774.96 1094.11 1775.53 1094.25 1776.71 1095.14C1778.14 1096.22 1779.49 1097.62 1781.27 1099.39C1786.33 1104.44 1791.48 1107.38 1797.32 1107.62C1802.62 1107.83 1807.32 1105.65 1810.47 1104.28C1811.52 1103.83 1812.57 1103.39 1813.64 1102.95C1814.41 1102.65 1815.16 1102.38 1816.01 1102.07C1816.83 1101.78 1817.79 1101.43 1818.73 1101.04C1820.62 1100.25 1822.93 1099.09 1825.01 1097.08C1829.44 1092.78 1830.82 1086.61 1830.82 1078.86C1830.82 1074.45 1830.83 1071.78 1831.04 1069.91C1831.05 1069.84 1831.06 1069.77 1831.07 1069.7C1831.14 1069.69 1831.21 1069.68 1831.29 1069.67C1833.15 1069.47 1835.83 1069.45 1840.24 1069.45H1859.7C1864.1 1069.45 1866.78 1069.46 1868.64 1069.67C1868.71 1069.68 1868.78 1069.69 1868.85 1069.7C1868.86 1069.77 1868.87 1069.84 1868.88 1069.91C1869.09 1071.78 1869.1 1074.45 1869.1 1078.86C1869.1 1082.66 1869.19 1085.92 1869.62 1088.56C1870.07 1091.32 1871.01 1094.26 1873.35 1096.71C1875.51 1098.97 1878.18 1100.02 1879.95 1100.68C1882.21 1101.51 1883.57 1101.88 1886.27 1102.96C1887.32 1103.38 1888.37 1103.82 1889.4 1104.28L1889.42 1104.28L1889.43 1104.29C1890.77 1104.87 1892.93 1105.89 1894.69 1106.55C1896.67 1107.3 1899.14 1108.01 1901.99 1108C1908.04 1107.96 1913.3 1104.74 1918.65 1099.4C1920.45 1097.61 1921.9 1096.09 1923.47 1094.87C1924.54 1094.04 1925.15 1093.78 1925.37 1093.7C1925.58 1093.78 1926.16 1094.04 1927.16 1094.83C1928.72 1096.06 1930.09 1097.54 1931.95 1099.39V1099.4L1945.71 1113.16V1113.16C1947.4 1114.85 1949.01 1116.46 1950.26 1118.12C1951.14 1119.29 1951.45 1119.98 1951.55 1120.25C1951.44 1120.47 1951.18 1120.93 1950.55 1121.66C1949.98 1122.32 1949.28 1123.03 1948.42 1123.85C1947.74 1124.51 1946.74 1125.45 1945.91 1126.26C1943.62 1128.29 1941.31 1130.24 1939.77 1131.76C1938.18 1133.35 1935.96 1135.82 1935.34 1139.44C1934.72 1142.99 1935.92 1146.09 1936.89 1148.21C1937.84 1150.31 1939.34 1152.98 1940.94 1155.96C1941.35 1156.91 1941.75 1157.86 1942.13 1158.82C1943.41 1162.05 1944.05 1164.18 1944.83 1166.39C1945.43 1168.07 1946.48 1171.11 1948.93 1173.34C1951.8 1175.94 1955.21 1176.36 1957.67 1176.44C1960.07 1176.51 1963.22 1176.26 1966.79 1176C1971.08 1175.69 1973.66 1175.59 1975.35 1175.74C1975.35 1175.74 1975.35 1175.74 1975.35 1175.74C1975.37 1175.9 1975.4 1176.08 1975.42 1176.28C1975.63 1178.26 1975.65 1181.03 1975.65 1185.42V1204.88C1975.65 1209.29 1975.64 1211.96 1975.43 1213.82C1975.42 1213.89 1975.41 1213.97 1975.4 1214.03C1975.33 1214.04 1975.26 1214.05 1975.19 1214.06C1973.32 1214.27 1970.65 1214.28 1966.25 1214.28C1962.62 1214.28 1959.49 1214.27 1957.09 1214.51C1954.64 1214.76 1951.52 1215.37 1948.86 1217.72C1946.43 1219.87 1945.35 1222.71 1944.71 1224.43C1943.88 1226.67 1943.38 1228.37 1942.15 1231.46C1941.73 1232.51 1941.29 1233.55 1940.84 1234.58C1939.38 1237.91 1938.18 1240.03 1937.23 1241.8C1936.79 1242.62 1936.22 1243.69 1935.8 1244.77C1935.36 1245.91 1934.85 1247.6 1935 1249.62C1935.31 1253.7 1938.09 1256.4 1939.25 1257.57C1940.03 1258.35 1941.01 1259.28 1942.02 1260.24C1943.07 1261.24 1944.29 1262.41 1945.71 1263.84C1947.48 1265.61 1948.93 1267.01 1950.06 1268.5C1950.93 1269.64 1951.12 1270.24 1951.17 1270.38C1951.12 1270.53 1950.93 1271.19 1950 1272.44C1948.88 1273.96 1947.39 1275.45 1945.71 1277.13L1931.95 1290.9C1930.08 1292.76 1928.85 1294.1 1927.44 1295.19C1926.4 1295.99 1925.9 1296.14 1925.79 1296.17C1925.72 1296.15 1925.47 1296.1 1925.04 1295.91C1925.17 1295.97 1925.28 1296.02 1925.38 1296.05L1922.77 1294.55C1922.88 1294.62 1922.98 1294.7 1923.09 1294.77C1921.67 1293.78 1920.24 1292.47 1918.89 1291.14C1914.02 1285.23 1908.65 1281.91 1902.27 1282.05C1899.37 1282.11 1896.82 1282.89 1894.8 1283.68C1893 1284.37 1890.77 1285.44 1889.45 1286.02C1888.42 1286.46 1887.38 1286.89 1886.32 1287.3L1886.29 1287.31C1885.56 1287.6 1884.81 1287.87 1883.94 1288.17C1883.11 1288.45 1882.12 1288.79 1881.16 1289.17C1879.25 1289.91 1876.79 1291.03 1874.6 1293.01C1869.61 1297.5 1868.35 1304.05 1869.13 1312.15C1869.54 1316.35 1869.67 1318.88 1869.55 1320.51C1869.36 1320.54 1869.14 1320.57 1868.89 1320.6C1866.88 1320.81 1864.08 1320.83 1859.7 1320.83H1840.22C1835.83 1320.83 1833.07 1320.82 1831.12 1320.6C1830.93 1320.58 1830.77 1320.56 1830.62 1320.54C1830.62 1320.53 1830.62 1320.52 1830.62 1320.51C1830.47 1318.79 1830.55 1316.2 1830.81 1311.88C1831.3 1303.91 1829.99 1297.5 1825.21 1293.07C1823.05 1291.08 1820.64 1289.95 1818.74 1289.2C1817.78 1288.82 1816.81 1288.47 1815.99 1288.19C1815.13 1287.88 1814.38 1287.62 1813.64 1287.33H1813.65C1812.59 1286.91 1811.55 1286.47 1810.52 1286.02L1810.5 1286.02L1810.49 1286.01L1809.42 1285.53C1808.2 1284.97 1806.56 1284.21 1805.38 1283.75C1803.44 1282.98 1800.98 1282.22 1798.11 1282.21C1791.99 1282.18 1786.69 1285.48 1781.27 1290.89C1779.92 1292.24 1778.49 1293.44 1777.11 1294.28C1775.69 1295.14 1774.82 1295.31 1774.46 1295.31C1774.15 1295.31 1773.39 1295.17 1772.07 1294.34C1771.75 1294.14 1771.42 1293.91 1771.08 1293.66L1752.52 1275.43C1752.77 1275.69 1753.03 1275.95 1753.3 1276.23C1752 1274.92 1750.94 1273.81 1750.11 1272.68C1749.09 1271.28 1749.1 1270.74 1749.1 1270.81C1749.1 1270.78 1749.12 1270.58 1749.28 1270.19C1749.46 1269.72 1749.78 1269.12 1750.27 1268.39C1751.29 1266.88 1752.71 1265.34 1754.21 1263.84C1759.8 1258.23 1763.3 1252.83 1763.11 1246.57C1763.02 1243.64 1762.12 1241.19 1761.32 1239.37C1760.92 1238.47 1760.47 1237.56 1760.11 1236.82C1759.82 1236.23 1759.56 1235.69 1759.32 1235.15L1759.08 1234.61C1758.64 1233.57 1758.2 1232.52 1757.77 1231.46C1757.32 1230.32 1756.41 1227.72 1755.74 1226.15C1754.91 1224.21 1753.7 1221.84 1751.7 1219.73C1747.24 1215.02 1740.91 1213.65 1733.05 1214.3C1728.79 1214.66 1726.24 1214.77 1724.58 1214.64C1724.55 1214.46 1724.53 1214.27 1724.5 1214.04C1724.29 1212.05 1724.27 1209.26 1724.27 1204.88V1185.41C1724.27 1181 1724.28 1178.33 1724.49 1176.46C1724.5 1176.39 1724.51 1176.32 1724.52 1176.25C1724.59 1176.24 1724.66 1176.23 1724.73 1176.22C1726.6 1176.02 1729.27 1176 1733.67 1176C1741.48 1176 1747.7 1174.64 1751.99 1170.16C1754.01 1168.07 1755.14 1165.73 1755.91 1163.85C1756.29 1162.92 1756.63 1161.97 1756.91 1161.16C1757.22 1160.31 1757.48 1159.56 1757.78 1158.81C1758.19 1157.76 1758.62 1156.71 1759.08 1155.68C1759.52 1154.65 1760.79 1152.01 1761.4 1150.5C1762.2 1148.54 1763.03 1146.02 1763.12 1143.11C1763.3 1136.71 1759.88 1131.34 1754.03 1126.27C1753.37 1125.61 1752.75 1124.98 1752.19 1124.37ZM1924.8 1295.8C1924.75 1295.78 1924.71 1295.76 1924.66 1295.73C1924.71 1295.76 1924.75 1295.78 1924.8 1295.8ZM1924.36 1295.58C1924.35 1295.57 1924.33 1295.56 1924.32 1295.55C1924.33 1295.56 1924.35 1295.57 1924.36 1295.58ZM1923.91 1295.31C1923.87 1295.29 1923.83 1295.26 1923.79 1295.24C1923.83 1295.26 1923.87 1295.29 1923.91 1295.31ZM1770.63 1293.31C1770.58 1293.27 1770.54 1293.24 1770.5 1293.2C1770.54 1293.24 1770.58 1293.27 1770.63 1293.31ZM1770.12 1292.89C1770.09 1292.87 1770.06 1292.84 1770.03 1292.82C1770.06 1292.84 1770.09 1292.87 1770.12 1292.89ZM1769.09 1291.97C1769.04 1291.93 1768.98 1291.88 1768.93 1291.83C1768.98 1291.88 1769.04 1291.93 1769.09 1291.97ZM1767.97 1290.89C1768.2 1291.13 1768.43 1291.36 1768.67 1291.58C1768.43 1291.36 1768.2 1291.13 1767.97 1290.89ZM1965.8 1265.98L1966.04 1266.32L1965.76 1266.62L1965.7 1266.68C1965.57 1266.18 1965.42 1265.69 1965.25 1265.22L1965.8 1265.98ZM1960.76 1257.88C1960.81 1257.95 1960.87 1258.02 1960.93 1258.08C1960.87 1258.02 1960.81 1257.95 1960.76 1257.88ZM1849.96 1134.37C1833.84 1134.37 1818.38 1140.77 1806.99 1152.17C1795.59 1163.57 1789.19 1179.02 1789.19 1195.14C1789.19 1211.26 1795.59 1226.72 1806.99 1238.12C1818.38 1249.51 1833.84 1255.92 1849.96 1255.92C1866.08 1255.92 1881.54 1249.51 1892.93 1238.12C1904.33 1226.72 1910.74 1211.26 1910.74 1195.14C1910.74 1179.02 1904.33 1163.57 1892.93 1152.17C1881.54 1140.77 1866.08 1134.37 1849.96 1134.37ZM1951.77 1246.43L1957.48 1254.39C1957.06 1253.96 1956.67 1253.58 1956.33 1253.24C1954.78 1251.68 1953.45 1250.41 1952.37 1249.38C1951.8 1248.84 1951.33 1248.39 1950.93 1248.01C1951.18 1247.54 1951.46 1247.01 1951.77 1246.43ZM1954.61 1149.77C1954.6 1149.75 1954.59 1149.73 1954.58 1149.7L1954.46 1149.41L1954.31 1149.14L1951.97 1144.81C1951.39 1143.74 1950.95 1142.89 1950.61 1142.15C1951 1141.77 1951.44 1141.37 1951.96 1140.91L1954.61 1149.77ZM1954.03 1139.1C1953.29 1139.75 1952.66 1140.3 1952.12 1140.77C1952.66 1140.3 1953.29 1139.75 1954.03 1139.1ZM1751.62 1123.75C1751.47 1123.58 1751.33 1123.42 1751.19 1123.25C1751.33 1123.42 1751.47 1123.58 1751.62 1123.75ZM1751.07 1123.11C1750.96 1122.98 1750.86 1122.86 1750.76 1122.73C1750.86 1122.86 1750.96 1122.98 1751.07 1123.11ZM1878.87 1057.73V1057.93C1878.78 1057.87 1878.7 1057.8 1878.61 1057.73H1878.87ZM1820.28 530.719C1827.44 530.719 1831.97 530.733 1835.18 531.09C1836.16 531.199 1836.83 531.325 1837.26 531.427C1837.36 531.854 1837.49 532.519 1837.59 533.505C1837.95 536.715 1837.97 541.242 1837.97 548.408C1837.97 554.645 1838.12 559.809 1838.79 563.942C1839.49 568.232 1840.92 572.536 1844.3 576.076C1847.45 579.367 1851.37 580.952 1854.25 582.014C1857.77 583.316 1860.23 584.012 1864.66 585.779C1866.41 586.476 1868.14 587.203 1869.87 587.959L1869.91 587.977C1872.23 588.988 1875.6 590.587 1878.41 591.646C1881.53 592.819 1885.27 593.883 1889.55 593.86C1898.59 593.812 1906.66 589.026 1915.25 580.449C1918.13 577.575 1920.64 574.944 1923.36 572.835C1926.21 570.627 1927.61 570.375 1927.89 570.375C1928.12 570.375 1929.45 570.59 1932.22 572.778C1934.91 574.904 1937.3 577.481 1940.26 580.44V580.441L1962.83 603.003C1965.55 605.733 1968.32 608.483 1970.48 611.352C1972.82 614.465 1973.15 616.054 1973.15 616.342C1973.14 616.368 1973.07 617.437 1970.86 620.017C1968.54 622.732 1966.34 624.508 1963.08 627.759C1959.23 631.168 1955.54 634.265 1953.08 636.712C1950.54 639.236 1947.35 642.866 1946.45 648.054C1945.57 653.157 1947.28 657.697 1948.82 661.086C1950.35 664.453 1952.77 668.761 1955.45 673.742C1956.15 675.342 1956.81 676.953 1957.45 678.574C1959.57 683.919 1960.66 687.531 1961.91 691.046C1962.91 693.868 1964.48 698.3 1968.01 701.504C1972.09 705.217 1977 705.876 1980.86 705.992C1984.63 706.105 1989.64 705.704 1995.56 705.275C2002.57 704.768 2006.97 704.594 2009.95 704.854C2010.76 704.924 2011.32 705.018 2011.68 705.098C2011.81 705.578 2011.99 706.415 2012.14 707.777C2012.51 711.165 2012.53 715.849 2012.53 722.991V754.87C2012.53 762.036 2012.51 766.564 2012.16 769.773C2012.05 770.758 2011.92 771.423 2011.82 771.85C2011.39 771.952 2010.73 772.078 2009.74 772.188C2006.53 772.544 2002 772.56 1994.84 772.56C1988.84 772.56 1983.86 772.547 1980.07 772.929C1976.22 773.317 1971.68 774.25 1967.88 777.621C1964.36 780.728 1962.75 784.866 1961.71 787.691C1960.4 791.217 1959.51 794.19 1957.49 799.26C1956.79 801.013 1956.06 802.745 1955.31 804.454C1952.87 810.01 1950.87 813.566 1949.32 816.45C1948.59 817.801 1947.72 819.437 1947.09 821.056C1946.43 822.756 1945.72 825.159 1945.93 828.01C1946.36 833.733 1950.26 837.596 1952.23 839.577C1953.48 840.837 1955.06 842.32 1956.73 843.91C1958.45 845.554 1960.46 847.486 1962.82 849.846C1965.66 852.691 1968.17 855.115 1970.14 857.715C1972.17 860.388 1972.44 861.771 1972.44 862.172C1972.44 862.629 1972.12 864.129 1970.06 866.918C1968.1 869.572 1965.55 872.13 1962.83 874.857L1940.27 897.415C1937.29 900.386 1935.12 902.738 1932.66 904.64C1930.25 906.498 1929.03 906.721 1928.6 906.722C1927.92 906.722 1926.15 906.29 1923.2 904.285C1920.57 902.493 1917.95 900.1 1915.56 897.737C1907.81 888.31 1899.6 883.379 1890.07 883.583C1885.7 883.677 1881.81 884.862 1878.61 886.099C1875.71 887.224 1872.21 888.898 1869.91 889.903C1868.21 890.64 1866.48 891.35 1864.73 892.033L1864.71 892.04L1864.69 892.048C1863.44 892.543 1862.17 892.99 1860.74 893.485C1859.38 893.958 1857.8 894.501 1856.27 895.096C1853.24 896.278 1849.51 897.984 1846.22 900.95C1838.84 907.592 1836.76 917.425 1838.01 930.394C1838.69 937.35 1838.92 941.702 1838.69 944.596C1838.63 945.351 1838.55 945.875 1838.47 946.221C1837.98 946.362 1837.09 946.565 1835.59 946.727C1832.14 947.098 1827.41 947.12 1820.28 947.12H1788.38C1781.23 947.12 1776.57 947.103 1773.21 946.738C1771.91 946.597 1771.1 946.427 1770.62 946.301C1770.54 945.925 1770.44 945.35 1770.37 944.512C1770.09 941.503 1770.24 937.077 1770.67 930.04C1771.45 917.234 1769.3 907.591 1762.22 901.04C1758.99 898.054 1755.35 896.332 1752.33 895.133C1750.82 894.531 1749.27 893.988 1747.91 893.512C1746.85 893.138 1745.86 892.791 1744.9 892.431L1743.94 892.063C1742.21 891.37 1740.49 890.65 1738.79 889.903L1738.75 889.884C1736.67 888.982 1733.01 887.224 1730.44 886.211C1727.4 885.009 1723.67 883.865 1719.36 883.844C1710.26 883.8 1702.14 888.695 1693.4 897.411C1691.12 899.683 1688.63 901.797 1686.17 903.292C1683.64 904.825 1681.8 905.305 1680.64 905.306C1679.54 905.306 1677.86 904.866 1675.5 903.38C1673.46 902.091 1671.38 900.32 1669.28 898.294L1668.38 897.411L1645.83 874.857C1643.05 872.078 1640.69 869.743 1638.9 867.298C1637.1 864.839 1636.8 863.468 1636.8 862.881C1636.8 862.146 1637.22 860.433 1639.11 857.635C1640.91 854.983 1643.35 852.332 1645.83 849.846C1654.88 840.78 1660.04 832.519 1659.75 823.247C1659.62 818.874 1658.27 815.177 1657 812.297C1656.38 810.869 1655.67 809.433 1655.07 808.202C1654.45 806.921 1653.88 805.75 1653.35 804.532C1652.62 802.803 1651.89 801.052 1651.17 799.279C1650.37 797.231 1648.96 793.209 1647.86 790.625C1646.54 787.541 1644.7 783.946 1641.69 780.772C1635.05 773.774 1625.53 771.544 1612.98 772.595C1605.99 773.18 1601.61 773.381 1598.68 773.137C1597.89 773.071 1597.35 772.981 1596.99 772.904C1596.86 772.418 1596.67 771.554 1596.51 770.129C1596.14 766.715 1596.13 762.007 1596.12 754.87V722.969C1596.13 715.803 1596.14 711.275 1596.5 708.065C1596.61 707.08 1596.73 706.414 1596.83 705.987C1597.26 705.885 1597.93 705.76 1598.91 705.65C1602.12 705.294 1606.65 705.279 1613.81 705.279C1626.43 705.279 1635.8 703.058 1642.18 696.415C1645.19 693.28 1646.92 689.761 1648.12 686.797C1648.72 685.323 1649.26 683.81 1649.73 682.479C1650.23 681.088 1650.67 679.825 1651.18 678.537C1651.87 676.798 1652.59 675.07 1653.33 673.354C1654.17 671.447 1656.11 667.422 1657.12 664.916C1658.38 661.821 1659.64 657.983 1659.76 653.605C1660.03 644.078 1654.98 635.851 1645.59 627.744C1643.02 625.171 1640.71 622.782 1638.98 620.35C1637.14 617.769 1636.8 616.275 1636.8 615.634C1636.8 614.95 1637.18 613.359 1639.04 610.681C1640.83 608.113 1643.25 605.563 1645.83 602.981L1668.38 580.428C1670.96 577.853 1673.61 575.332 1676.28 573.454C1679.11 571.466 1680.74 571.083 1681.35 571.083C1681.82 571.083 1683.16 571.351 1685.69 573.261C1688.21 575.152 1690.55 577.581 1693.4 580.428C1701.47 588.483 1709.39 592.89 1718.18 593.246C1726.24 593.572 1733.45 590.249 1738.73 587.962C1740.45 587.218 1742.19 586.486 1743.96 585.769C1745.26 585.256 1746.53 584.803 1747.93 584.296C1749.28 583.809 1750.8 583.258 1752.28 582.64C1755.26 581.397 1758.75 579.634 1761.86 576.617C1768.44 570.227 1770.69 560.918 1770.69 548.408C1770.69 541.242 1770.7 536.715 1771.06 533.506C1771.17 532.52 1771.29 531.855 1771.39 531.429C1771.82 531.326 1772.49 531.201 1773.48 531.091C1776.69 530.734 1781.23 530.719 1788.4 530.719H1820.28ZM1107.69 112.638C1160.64 112.638 1152.97 132.905 1152.97 157.92C1150.02 218.196 1176.02 219.629 1205.7 231.376C1209.53 232.903 1213.33 234.496 1217.1 236.153L1217.13 236.166L1217.16 236.177C1254.87 252.201 1269.04 263.536 1306.45 221.546C1314.95 213.068 1326.47 200.844 1338.47 200.844C1350.47 200.844 1361.98 213.064 1370.47 221.535L1418.9 269.965C1427.38 278.463 1438.96 289.788 1438.96 301.792C1438.96 313.795 1427.38 325.499 1418.9 333.997C1380.26 372.729 1380.26 376.888 1404.27 423.282L1404.27 423.293L1404.28 423.306C1405.92 427.079 1407.5 430.883 1409.01 434.711C1427.03 480.32 1428.97 487.476 1482.48 487.477C1527.76 487.477 1527.76 487.477 1527.76 532.759V601.205C1527.76 646.487 1527.76 646.487 1482.48 646.487C1430.24 647.513 1424.18 658.14 1409.07 699.216C1407.54 703.059 1405.95 706.856 1404.3 710.605L1404.27 710.67C1381.68 755.196 1384.51 765.574 1408.51 789.583C1416.99 798.081 1438.96 818.996 1438.96 831C1438.96 842.423 1428.47 854.292 1420.15 862.736C1405.61 848.783 1385.95 831.708 1366.8 831.708C1345.82 831.709 1312.27 866.636 1312.27 866.636L1312.25 866.647C1281.75 897.151 1270.26 886.352 1247.4 876.424C1242.98 874.484 1238.53 872.619 1234.05 870.831L1234.03 870.822L1234 870.814L1232.92 870.375C1210.35 861.01 1195.07 866.647 1195.07 818.069C1195.07 818.482 1195.08 818.895 1195.09 819.307C1222.85 805.821 1248.44 787.717 1270.67 765.482C1323.15 713.002 1352.64 641.823 1352.64 567.605C1352.64 493.388 1323.15 422.209 1270.67 369.729C1218.19 317.249 1147.01 287.765 1072.8 287.765C1064.49 287.765 1056.21 288.141 1048 288.872V112.638H1107.69ZM1804.33 641.64C1778.53 641.64 1753.78 651.889 1735.54 670.133C1717.3 688.376 1707.05 713.12 1707.05 738.92C1707.05 764.72 1717.3 789.464 1735.54 807.707C1753.78 825.95 1778.53 836.2 1804.33 836.2C1830.13 836.2 1854.87 825.95 1873.11 807.707C1891.36 789.464 1901.61 764.72 1901.61 738.92C1901.61 713.12 1891.36 688.376 1873.11 670.133C1854.87 651.889 1830.13 641.64 1804.33 641.64ZM1072.8 316.103C1139.5 316.103 1203.47 342.6 1250.64 389.766C1297.8 436.931 1324.3 500.903 1324.3 567.605C1324.3 634.308 1297.8 698.279 1250.64 745.444C1233.93 762.153 1215.1 776.261 1194.8 787.522C1193.91 758.742 1190.01 746.999 1173.01 742.207C1188.6 733.352 1203.07 722.383 1215.97 709.483C1253.77 671.683 1275.01 620.414 1275.01 566.956C1275.01 513.498 1253.77 462.23 1215.97 424.43C1178.17 386.629 1126.9 365.392 1073.45 365.392C1064.89 365.392 1056.39 365.936 1048 367.004V317.33C1056.2 316.517 1064.48 316.103 1072.8 316.103ZM289.196 261.065L226.514 505.245L59.8535 596.976L226.513 505.244L289.196 261.065ZM1752.19 1124.37C1752.01 1124.18 1751.84 1123.99 1751.68 1123.81C1751.84 1123.99 1752.01 1124.18 1752.19 1124.37ZM1966.15 1269.56C1966.16 1269.68 1966.17 1269.8 1966.17 1269.93C1966.17 1269.8 1966.16 1269.68 1966.15 1269.56Z" fill="#007AFF"/>
</svg>
